<svg xmlns="http://www.w3.org/2000/svg" aria-hidden="true" overflow="hidden" style="width:0;height:0;position:absolute"><defs><symbol id="menu" viewBox="0 0 24 24"><path d="M6 8c1.1 0 2-.9 2-2s-.9-2-2-2-2 .9-2 2 .9 2 2 2zm6 12c1.1 0 2-.9 2-2s-.9-2-2-2-2 .9-2 2 .9 2 2 2zm-6 0c1.1 0 2-.9 2-2s-.9-2-2-2-2 .9-2 2 .9 2 2 2zm0-6c1.1 0 2-.9 2-2s-.9-2-2-2-2 .9-2 2 .9 2 2 2zm6 0c1.1 0 2-.9 2-2s-.9-2-2-2-2 .9-2 2 .9 2 2 2zm4-8c0 1.1.9 2 2 2s2-.9 2-2-.9-2-2-2-2 .9-2 2zm-4 2c1.1 0 2-.9 2-2s-.9-2-2-2-2 .9-2 2 .9 2 2 2zm6 6c1.1 0 2-.9 2-2s-.9-2-2-2-2 .9-2 2 .9 2 2 2zm0 6c1.1 0 2-.9 2-2s-.9-2-2-2-2 .9-2 2 .9 2 2 2z"/></symbol><symbol id="oddity" viewBox="0 0 89 36"><path class="logo-white" d="M53.504 5.502h1.413l-.517 3.92 3.847-5.728h-1.309L57.502 0l-3.998 5.502Z"/><path d="M53.504 5.502h1.413l-.517 3.92 3.847-5.728h-1.309L57.502 0l-3.998 5.502Z"/><path class="logo-white" d="M46.524 11.802H37.06v15.422c0 2.343-3.819 2.797-3.819 4.943V36h9.464l2.377-2.386V26.16c0-2.13 3.82-2.343 3.82-4.472v-7.506l-2.378-2.38Zm-5.24 18.19v2.318h-4.248v-2.12c0-2.963 3.786-2.537 3.786-5.093 0-2.555.033-9.866.033-9.866h3.456l.792.795v6.73c0 1.34-.102 1.917-1.584 2.981-1.639 1.164-2.236 1.087-2.236 4.255ZM69.319 15.23V36h-3.75V15.23h-4.066v-3.446h11.885v3.446h-4.07ZM57.552 15.255V36h-3.749V11.788h3.75v3.467ZM29.122 11.802h-9.466v15.422c0 2.343-3.819 2.797-3.819 4.943V36h9.466l2.377-2.386V26.16c0-2.13 3.82-2.343 3.82-4.472v-7.506l-2.378-2.38Zm-5.241 18.19v2.318h-4.247v-2.12c0-2.963 3.786-2.537 3.786-5.093 0-2.555.033-9.866.033-9.866h3.455l.792.795v6.73c0 1.34-.103 1.917-1.585 2.981-1.633 1.164-2.234 1.087-2.234 4.255ZM85.176 11.802l-2.87 8.716-2.87-8.716h-3.824l4.819 13.249V36h3.749V25.05L89 11.8h-3.824ZM0 33.606V14.158l2.256-2.356h9.508l2.377 2.368v7.168c0 1.723-.866 1.9-2.001 2.64-.954.615-1.821.947-1.821 2.187v7.455l-2.377 2.385H2.256L0 33.606Zm3.797-1.325h2.63V29.466c0-.905.132-2.175 1.995-3.563 1.54-1.146 1.92-1.57 1.92-3.473v-7.29H3.798v17.141Z"/></symbol><symbol id="search" viewBox="0 0 24 24"><path d="M15.5 14h-.79l-.28-.27A6.471 6.471 0 0 0 16 9.5 6.5 6.5 0 1 0 9.5 16c1.61 0 3.09-.59 4.23-1.57l.27.28v.79l5 4.99L20.49 19l-4.99-5zm-6 0C7.01 14 5 11.99 5 9.5S7.01 5 9.5 5 14 7.01 14 9.5 11.99 14 9.5 14z"/></symbol><symbol id="microphone" viewBox="0 0 26 26"><path fill="#1e88e5" style="fill:var(--color1,#1e88e5)" d="M16.001 19.004a3.027 3.027 0 0 0 3.029-3.029V8.892a3.027 3.027 0 0 0-3.029-3.029 3.027 3.027 0 0 0-3.029 3.029v7.083a3.04 3.04 0 0 0 3.029 3.029z"/><path fill="#4caf50" style="fill:var(--color2,#4caf50)" d="M14.993 22.965v3.179h2.027v-3.157c-.32.043-.661.043-1.003.043-.363.021-.683 0-1.024-.064z"/><path fill="#fbc02d" style="fill:var(--color3,#fbc02d)" d="M12.412 19.586c-.896-.917-1.472-2.027-1.472-3.541H8.913c0 2.027.789 3.691 2.069 4.971l.021-.021-.021-.021 1.429-1.387z"/><path fill="#e53935" style="fill:var(--color4,#e53935)" d="M21.058 16.041c0 2.539-2.24 5.035-5.056 5.035a5.046 5.046 0 0 1-3.584-1.493l-1.429 1.429.021.021c1.045 1.045 2.432 1.749 3.989 1.984.341.043.683.085 1.024.085s.683 0 1.003-.043c3.435-.491 6.059-3.435 6.059-6.976h-2.027z"/></symbol><symbol id="camera" viewBox="0 0 26 26"><path fill="#fbc02d" style="fill:var(--color1,#fbc02d)" d="M20.117 9.301a2.59 2.59 0 0 1 2.581 2.581v2.069h2.581v-2.069a5.167 5.167 0 0 0-5.163-5.163h-2.069V9.3h2.069z"/><path fill="#e53935" style="fill:var(--color2,#e53935)" d="M9.301 11.883a2.59 2.59 0 0 1 2.581-2.581h2.069V6.721h-2.069a5.167 5.167 0 0 0-5.163 5.163v2.069H9.3v-2.069z"/><path fill="#1a73e8" style="fill:var(--color3,#1a73e8)" d="M11.883 22.699a2.59 2.59 0 0 1-2.581-2.581v-2.069H6.721v2.069a5.167 5.167 0 0 0 5.163 5.163h2.069V22.7h-2.069z"/><path fill="#1e88e5" style="fill:var(--color4,#1e88e5)" d="M19.605 16a3.605 3.605 0 1 1-7.21 0 3.605 3.605 0 0 1 7.21 0z"/><path fill="#4caf50" style="fill:var(--color5,#4caf50)" d="M24.256 22.187a2.069 2.069 0 1 1-4.137 0 2.069 2.069 0 0 1 4.137 0z"/></symbol><symbol id="keyboard" viewBox="0 0 26 26"><path d="M.4 6.4c-.24 0-.4.16-.4.4V18c0 .24.16.4.4.4h24c.24 0 .4-.16.4-.4V6.8c0-.24-.16-.4-.4-.4H.4zM1.75 8h1.2c.16 0 .25.09.25.25v1.2c0 .08-.07.15-.15.15h-1.3a.153.153 0 0 1-.15-.15v-1.2c0-.16.07-.25.15-.25zm2.4 0h1.2c.16 0 .25.09.25.25v1.2c0 .08-.07.15-.15.15h-1.3A.153.153 0 0 1 4 9.45v-1.2c0-.16.07-.25.15-.25zm2.4 0h1.2c.16 0 .25.09.25.25v1.2c0 .08-.07.15-.15.15h-1.3a.153.153 0 0 1-.15-.15v-1.2c0-.16.07-.25.15-.25zm2.4 0h1.2c.16 0 .25.09.25.25v1.2c0 .08-.07.15-.15.15h-1.2c-.16 0-.25-.07-.25-.15v-1.2c0-.16.07-.25.15-.25zm2.4 0h1.2c.16 0 .25.09.25.25v1.2c0 .08-.07.15-.15.15h-1.2c-.16 0-.25-.07-.25-.15v-1.2c0-.16.07-.25.15-.25zm2.4 0h1.2c.16 0 .25.09.25.25v1.2c0 .08-.07.15-.15.15h-1.2c-.16 0-.25-.07-.25-.15v-1.2c0-.16.07-.25.15-.25zm2.4 0h1.2c.16 0 .25.09.25.25v1.2c0 .08-.07.15-.15.15h-1.2c-.16 0-.25-.07-.25-.15v-1.2c0-.16.07-.25.15-.25zm2.4 0h1.2c.16 0 .25.09.25.25v1.2c0 .08-.07.15-.15.15h-1.2c-.16 0-.25-.07-.25-.15v-1.2c0-.16.07-.25.15-.25zm2.4 0h2c.16 0 .25.09.25.25v1.2c0 .08-.07.15-.15.15h-2c-.16 0-.25-.07-.25-.15v-1.2c0-.16.07-.25.15-.25zm-19.2 2.4h2c.16 0 .25.07.25.15v1.2c0 .16-.07.25-.15.25h-2.1a.154.154 0 0 1-.15-.15v-1.3c0-.08.07-.15.15-.15zm3.2 0h1.2c.16 0 .25.07.25.15v1.2c0 .16-.07.25-.15.25h-1.3a.154.154 0 0 1-.15-.15v-1.3c0-.08.07-.15.15-.15zm2.4 0h1.2c.16 0 .25.07.25.15v1.2c0 .16-.07.25-.15.25h-1.3a.154.154 0 0 1-.15-.15v-1.3c0-.08.07-.15.15-.15zm2.4 0h1.2c.16 0 .25.07.25.15v1.2c0 .16-.07.25-.15.25h-1.2c-.16 0-.25-.07-.25-.15v-1.3c0-.08.07-.15.15-.15zm2.4 0h1.2c.16 0 .25.07.25.15v1.2c0 .16-.07.25-.15.25h-1.2c-.16 0-.25-.07-.25-.15v-1.3c0-.08.07-.15.15-.15zm2.4 0h1.2c.16 0 .25.07.25.15v1.2c0 .16-.07.25-.15.25h-1.2c-.16 0-.25-.07-.25-.15v-1.3c0-.08.07-.15.15-.15zm2.4 0h1.2c.16 0 .25.07.25.15v1.2c0 .16-.07.25-.15.25h-1.2c-.16 0-.25-.07-.25-.15v-1.3c0-.08.07-.15.15-.15zm2.4 0h1.2c.16 0 .25.07.25.15v1.2c0 .16-.07.25-.15.25h-1.2c-.16 0-.25-.07-.25-.15v-1.3c0-.08.07-.15.15-.15zm2.4 0h1.2c.16 0 .25.07.25.15v1.3c0 .08-.07.15-.15.15h-1.2c-.16 0-.25-.07-.25-.15v-1.3c0-.08.07-.15.15-.15zm-20 2.4h2.8c.16 0 .25.07.25.15v1.2c0 .16-.07.25-.15.25h-2.9a.154.154 0 0 1-.15-.15v-1.3c0-.08.07-.15.15-.15zm4 0h1.2c.16 0 .25.07.25.15v1.2c0 .16-.07.25-.15.25h-1.3a.154.154 0 0 1-.15-.15v-1.3c0-.08.07-.15.15-.15zm2.4 0h1.2c.16 0 .25.07.25.15v1.2c0 .08-.07.175-.15.175h-1.2c-.16.08-.25.005-.25-.075v-1.3c0-.08.07-.15.15-.15zm2.4 0h1.2c.16 0 .25.07.25.15v1.2c0 .08-.07.175-.15.175h-1.2c-.16.08-.25.005-.25-.075v-1.3c0-.08.07-.15.15-.15zm2.4 0h1.2c.16 0 .25.07.25.15v1.2c0 .08-.07.175-.15.175h-1.2c-.16.08-.25.005-.25-.075v-1.3c0-.08.07-.15.15-.15zm2.4 0h1.2c.16 0 .25.07.25.15v1.2c0 .08-.07.175-.15.175h-1.2c-.16.08-.25.005-.25-.075v-1.3c0-.08.07-.15.15-.15zm2.4 0h1.2c.16 0 .25.07.25.15v1.2c0 .16-.07.25-.15.25h-1.2c-.16 0-.25-.07-.25-.15v-1.3c0-.08.07-.15.15-.15zm2.4 0h2.8c.16 0 .25.07.25.15v1.3c0 .08-.07.15-.15.15h-2.8c-.16 0-.25-.07-.25-.15v-1.3c0-.08.07-.15.15-.15zm-18.4 2.4h1.2c.16 0 .25.07.25.15v1.3c0 .08-.07.15-.15.15h-1.3a.154.154 0 0 1-.15-.15v-1.2c0-.16.07-.25.15-.25zm2.4 0h1.2c.16 0 .25.07.25.15v1.3c0 .08-.07.15-.15.15h-1.3a.154.154 0 0 1-.15-.15v-1.2c0-.16.07-.25.15-.25zm2.4 0h11.6c.08 0 .175.07.175.15v1.3h.075c0 .08-.07.15-.15.15H6.55a.154.154 0 0 1-.15-.15v-1.2c0-.16.07-.25.15-.25zm12.9.075h1.2c.08 0 .15.095.15.175v1.2c0 .08-.07.15-.15.15h-1.2c-.08 0-.175-.07-.175-.15v-1.2c0-.08.095-.175.175-.175zm2.4 0h1.2c.08 0 .15.095.15.175v1.2c0 .08-.07.15-.15.15h-1.2c-.08 0-.175-.07-.175-.15v-1.2c0-.08.095-.175.175-.175z"/></symbol></defs></svg>