<svg xmlns="http://www.w3.org/2000/svg" aria-hidden="true" overflow="hidden" style="position:absolute;width:0;height:0"><defs>

<symbol id="menu" viewBox="0 0 24 24"><path d="M6,8c1.1,0 2,-0.9 2,-2s-0.9,-2 -2,-2 -2,0.9 -2,2 0.9,2 2,2zM12,20c1.1,0 2,-0.9 2,-2s-0.9,-2 -2,-2 -2,0.9 -2,2 0.9,2 2,2zM6,20c1.1,0 2,-0.9 2,-2s-0.9,-2 -2,-2 -2,0.9 -2,2 0.9,2 2,2zM6,14c1.1,0 2,-0.9 2,-2s-0.9,-2 -2,-2 -2,0.9 -2,2 0.9,2 2,2zM12,14c1.1,0 2,-0.9 2,-2s-0.9,-2 -2,-2 -2,0.9 -2,2 0.9,2 2,2zM16,6c0,1.1 0.9,2 2,2s2,-0.9 2,-2 -0.9,-2 -2,-2 -2,0.9 -2,2zM12,8c1.1,0 2,-0.9 2,-2s-0.9,-2 -2,-2 -2,0.9 -2,2 0.9,2 2,2zM18,14c1.1,0 2,-0.9 2,-2s-0.9,-2 -2,-2 -2,0.9 -2,2 0.9,2 2,2zM18,20c1.1,0 2,-0.9 2,-2s-0.9,-2 -2,-2 -2,0.9 -2,2 0.9,2 2,2z"></path></symbol>

<symbol id="oddity" viewBox="0 0 89 36"><path class="logo-white" d="M53.5035 5.50186H54.9165L54.4002 9.42248L58.2469 3.69397H56.9383L57.5022 0L53.5035 5.50186Z"></path><path d="M53.5035 5.50186H54.9165L54.4002 9.42248L58.2469 3.69397H56.9383L57.5022 0L53.5035 5.50186Z"></path><path class="logo-white" d="M46.5244 11.8018H37.06V27.2245C37.06 29.5665 33.241 30.0211 33.241 32.167V36.0001H42.7054L45.0824 33.6144V26.1601C45.0824 24.0302 48.9014 23.8168 48.9014 21.6881V14.1822L46.5244 11.8018ZM41.2831 29.992C41.2831 30.8257 41.2831 31.5149 41.2831 31.5149V32.3101H37.0362V30.1894C37.0362 27.2271 40.8223 27.6526 40.8223 25.0971C40.8223 22.5417 40.8553 15.2306 40.8553 15.2306H44.3112L45.1035 16.0259V22.7564C45.1035 24.0951 45.0005 24.673 43.5188 25.7373C41.88 26.9011 41.2831 26.8242 41.2831 29.992Z"></path><path class="logo-white" d="M69.3185 15.2303V35.9998H65.5694V15.2303H61.5034V11.7842H73.3884V15.2303H69.3185Z"></path><path class="logo-white" d="M57.5524 15.2554V35.9997H53.8033V11.7881H57.5524V15.2554Z"></path><path class="logo-white" d="M29.1222 11.8018H19.6564V27.2245C19.6564 29.5665 15.8374 30.0211 15.8374 32.167V36.0001H25.3031L27.6801 33.6144V26.1601C27.6801 24.0302 31.4992 23.8168 31.4992 21.6881V14.1822L29.1222 11.8018ZM23.8809 29.992C23.8809 30.8257 23.8809 31.5149 23.8809 31.5149V32.3101H19.634V30.1894C19.634 27.2271 23.42 27.6526 23.42 25.0971C23.42 22.5417 23.453 15.2306 23.453 15.2306H26.9076L27.6999 16.0259V22.7564C27.6999 24.0951 27.5969 24.673 26.1153 25.7373C24.4817 26.9011 23.8809 26.8242 23.8809 29.992Z"></path><path class="logo-white" d="M85.1756 11.8018L82.3061 20.5178L79.4365 11.8018H75.6122L80.4309 25.0508V36.0001H84.1799V25.0508L88.9999 11.8018H85.1756Z"></path><path class="logo-white" d="M0 33.6064V14.1584L2.25551 11.8018H11.7635L14.1405 14.1703V21.3382C14.1405 23.0613 13.2755 23.2376 12.1398 23.9785C11.1864 24.5935 10.3188 24.9248 10.3188 26.1654V33.6197L7.94181 36.0054H2.25551L0 33.6064ZM3.79659 32.281H6.42714V31.67C6.42714 31.67 6.42714 30.0503 6.42714 29.4658C6.42714 28.5605 6.55919 27.2907 8.42249 25.903C9.96226 24.7565 10.3426 24.3324 10.3426 22.4304V15.1405H3.79659V32.281Z"></path></symbol>

<symbol id="search" viewBox="0 0 24 24">
<path d="M15.5 14h-.79l-.28-.27A6.471 6.471 0 0 0 16 9.5 6.5 6.5 0 1 0 9.5 16c1.61 0 3.09-.59 4.23-1.57l.27.28v.79l5 4.99L20.49 19l-4.99-5zm-6 0C7.01 14 5 11.99 5 9.5S7.01 5 9.5 5 14 7.01 14 9.5 11.99 14 9.5 14z"></path></symbol>

<symbol id="microphone" viewBox="0 0 26 26">
<path fill="#1e88e5" style="fill: var(--color1, #1e88e5)" d="M16.001 19.004c1.685 0 3.029-1.365 3.029-3.029v-7.083c0-1.685-1.365-3.029-3.029-3.029-1.685 0-3.029 1.365-3.029 3.029v7.083c0 1.664 1.365 3.029 3.029 3.029z"></path>
<path fill="#4caf50" style="fill: var(--color2, #4caf50)" d="M14.993 22.965v3.179h2.027v-3.157c-0.32 0.043-0.661 0.043-1.003 0.043-0.363 0.021-0.683 0-1.024-0.064z"></path>
<path fill="#fbc02d" style="fill: var(--color3, #fbc02d)" d="M12.412 19.586c-0.896-0.917-1.472-2.027-1.472-3.541h-2.027c0 2.027 0.789 3.691 2.069 4.971l0.021-0.021-0.021-0.021 1.429-1.387z"></path>
<path fill="#e53935" style="fill: var(--color4, #e53935)" d="M21.058 16.041c0 2.539-2.24 5.035-5.056 5.035-1.408 0-2.667-0.576-3.584-1.493l-1.429 1.429 0.021 0.021c1.045 1.045 2.432 1.749 3.989 1.984 0.341 0.043 0.683 0.085 1.024 0.085s0.683 0 1.003-0.043c3.435-0.491 6.059-3.435 6.059-6.976h-2.027z"></path>
</symbol>

<symbol id="camera" viewBox="0 0 26 26">
<path fill="#fbc02d" style="fill: var(--color1, #fbc02d)" d="M20.117 9.301c1.408 0 2.581 1.152 2.581 2.581v2.069h2.581v-2.069c0-2.837-2.304-5.163-5.163-5.163h-2.069v2.581h2.069z"></path>
<path fill="#e53935" style="fill: var(--color2, #e53935)" d="M9.301 11.883c0-1.408 1.152-2.581 2.581-2.581h2.069v-2.581h-2.069c-2.837 0-5.163 2.304-5.163 5.163v2.069h2.581v-2.069z"></path>
<path fill="#1a73e8" style="fill: var(--color3, #1a73e8)" d="M11.883 22.699c-1.408 0-2.581-1.152-2.581-2.581v-2.069h-2.581v2.069c0 2.837 2.304 5.163 5.163 5.163h2.069v-2.581h-2.069z"></path>
<path fill="#1e88e5" style="fill: var(--color4, #1e88e5)" d="M19.605 16c0 1.991-1.614 3.605-3.605 3.605s-3.605-1.614-3.605-3.605c0-1.991 1.614-3.605 3.605-3.605s3.605 1.614 3.605 3.605z"></path>
<path fill="#4caf50" style="fill: var(--color5, #4caf50)" d="M24.256 22.187c0 1.143-0.926 2.069-2.069 2.069s-2.069-0.926-2.069-2.069c0-1.143 0.926-2.069 2.069-2.069s2.069 0.926 2.069 2.069z"></path>
</symbol>

<symbol id="keyboard" viewBox="0 0 26 26">
<path d="M0.4 6.4c-0.24 0-0.4 0.16-0.4 0.4v11.2c0 0.24 0.16 0.4 0.4 0.4h24c0.24 0 0.4-0.16 0.4-0.4v-11.2c0-0.24-0.16-0.4-0.4-0.4h-24zM1.75 8h1.2c0.16 0 0.25 0.090 0.25 0.25v1.2c0 0.080-0.070 0.15-0.15 0.15h-1.3c-0.082-0.002-0.149-0.068-0.15-0.15v-1.2c0-0.16 0.070-0.25 0.15-0.25zM4.15 8h1.2c0.16 0 0.25 0.090 0.25 0.25v1.2c0 0.080-0.070 0.15-0.15 0.15h-1.3c-0.082-0.002-0.149-0.068-0.15-0.15v-1.2c0-0.16 0.070-0.25 0.15-0.25zM6.55 8h1.2c0.16 0 0.25 0.090 0.25 0.25v1.2c0 0.080-0.070 0.15-0.15 0.15h-1.3c-0.082-0.002-0.149-0.068-0.15-0.15v-1.2c0-0.16 0.070-0.25 0.15-0.25zM8.95 8h1.2c0.16 0 0.25 0.090 0.25 0.25v1.2c0 0.080-0.070 0.15-0.15 0.15h-1.2c-0.16 0-0.25-0.070-0.25-0.15v-1.2c0-0.16 0.070-0.25 0.15-0.25zM11.35 8h1.2c0.16 0 0.25 0.090 0.25 0.25v1.2c0 0.080-0.070 0.15-0.15 0.15h-1.2c-0.16 0-0.25-0.070-0.25-0.15v-1.2c0-0.16 0.070-0.25 0.15-0.25zM13.75 8h1.2c0.16 0 0.25 0.090 0.25 0.25v1.2c0 0.080-0.070 0.15-0.15 0.15h-1.2c-0.16 0-0.25-0.070-0.25-0.15v-1.2c0-0.16 0.070-0.25 0.15-0.25zM16.15 8h1.2c0.16 0 0.25 0.090 0.25 0.25v1.2c0 0.080-0.070 0.15-0.15 0.15h-1.2c-0.16 0-0.25-0.070-0.25-0.15v-1.2c0-0.16 0.070-0.25 0.15-0.25zM18.55 8h1.2c0.16 0 0.25 0.090 0.25 0.25v1.2c0 0.080-0.070 0.15-0.15 0.15h-1.2c-0.16 0-0.25-0.070-0.25-0.15v-1.2c0-0.16 0.070-0.25 0.15-0.25zM20.95 8h2c0.16 0 0.25 0.090 0.25 0.25v1.2c0 0.080-0.070 0.15-0.15 0.15h-2c-0.16 0-0.25-0.070-0.25-0.15v-1.2c0-0.16 0.070-0.25 0.15-0.25zM1.75 10.4h2c0.16 0 0.25 0.070 0.25 0.15v1.2c0 0.16-0.070 0.25-0.15 0.25h-2.1c-0.082-0.002-0.148-0.068-0.15-0.15v-1.3c0-0.080 0.070-0.15 0.15-0.15zM4.95 10.4h1.2c0.16 0 0.25 0.070 0.25 0.15v1.2c0 0.16-0.070 0.25-0.15 0.25h-1.3c-0.082-0.002-0.148-0.068-0.15-0.15v-1.3c0-0.080 0.070-0.15 0.15-0.15zM7.35 10.4h1.2c0.16 0 0.25 0.070 0.25 0.15v1.2c0 0.16-0.070 0.25-0.15 0.25h-1.3c-0.082-0.002-0.148-0.068-0.15-0.15v-1.3c0-0.080 0.070-0.15 0.15-0.15zM9.75 10.4h1.2c0.16 0 0.25 0.070 0.25 0.15v1.2c0 0.16-0.070 0.25-0.15 0.25h-1.2c-0.16 0-0.25-0.070-0.25-0.15v-1.3c0-0.080 0.070-0.15 0.15-0.15zM12.15 10.4h1.2c0.16 0 0.25 0.070 0.25 0.15v1.2c0 0.16-0.070 0.25-0.15 0.25h-1.2c-0.16 0-0.25-0.070-0.25-0.15v-1.3c0-0.080 0.070-0.15 0.15-0.15zM14.55 10.4h1.2c0.16 0 0.25 0.070 0.25 0.15v1.2c0 0.16-0.070 0.25-0.15 0.25h-1.2c-0.16 0-0.25-0.070-0.25-0.15v-1.3c0-0.080 0.070-0.15 0.15-0.15zM16.95 10.4h1.2c0.16 0 0.25 0.070 0.25 0.15v1.2c0 0.16-0.070 0.25-0.15 0.25h-1.2c-0.16 0-0.25-0.070-0.25-0.15v-1.3c0-0.080 0.070-0.15 0.15-0.15zM19.35 10.4h1.2c0.16 0 0.25 0.070 0.25 0.15v1.2c0 0.16-0.070 0.25-0.15 0.25h-1.2c-0.16 0-0.25-0.070-0.25-0.15v-1.3c0-0.080 0.070-0.15 0.15-0.15zM21.75 10.4h1.2c0.16 0 0.25 0.070 0.25 0.15v1.3c0 0.080-0.070 0.15-0.15 0.15h-1.2c-0.16 0-0.25-0.070-0.25-0.15v-1.3c0-0.080 0.070-0.15 0.15-0.15zM1.75 12.8h2.8c0.16 0 0.25 0.070 0.25 0.15v1.2c0 0.16-0.070 0.25-0.15 0.25h-2.9c-0.082-0.002-0.148-0.068-0.15-0.15v-1.3c0-0.080 0.070-0.15 0.15-0.15zM5.75 12.8h1.2c0.16 0 0.25 0.070 0.25 0.15v1.2c0 0.16-0.070 0.25-0.15 0.25h-1.3c-0.082-0.002-0.148-0.068-0.15-0.15v-1.3c0-0.080 0.070-0.15 0.15-0.15zM8.15 12.8h1.2c0.16 0 0.25 0.070 0.25 0.15v1.2c0 0.080-0.070 0.175-0.15 0.175h-1.2c-0.16 0.080-0.25 0.005-0.25-0.075v-1.3c0-0.080 0.070-0.15 0.15-0.15zM10.55 12.8h1.2c0.16 0 0.25 0.070 0.25 0.15v1.2c0 0.080-0.070 0.175-0.15 0.175h-1.2c-0.16 0.080-0.25 0.005-0.25-0.075v-1.3c0-0.080 0.070-0.15 0.15-0.15zM12.95 12.8h1.2c0.16 0 0.25 0.070 0.25 0.15v1.2c0 0.080-0.070 0.175-0.15 0.175h-1.2c-0.16 0.080-0.25 0.005-0.25-0.075v-1.3c0-0.080 0.070-0.15 0.15-0.15zM15.35 12.8h1.2c0.16 0 0.25 0.070 0.25 0.15v1.2c0 0.080-0.070 0.175-0.15 0.175h-1.2c-0.16 0.080-0.25 0.005-0.25-0.075v-1.3c0-0.080 0.070-0.15 0.15-0.15zM17.75 12.8h1.2c0.16 0 0.25 0.070 0.25 0.15v1.2c0 0.16-0.070 0.25-0.15 0.25h-1.2c-0.16 0-0.25-0.070-0.25-0.15v-1.3c0-0.080 0.070-0.15 0.15-0.15zM20.15 12.8h2.8c0.16 0 0.25 0.070 0.25 0.15v1.3c0 0.080-0.070 0.15-0.15 0.15h-2.8c-0.16 0-0.25-0.070-0.25-0.15v-1.3c0-0.080 0.070-0.15 0.15-0.15zM1.75 15.2h1.2c0.16 0 0.25 0.070 0.25 0.15v1.3c0 0.080-0.070 0.15-0.15 0.15h-1.3c-0.082-0.002-0.148-0.068-0.15-0.15v-1.2c0-0.16 0.070-0.25 0.15-0.25zM4.15 15.2h1.2c0.16 0 0.25 0.070 0.25 0.15v1.3c0 0.080-0.070 0.15-0.15 0.15h-1.3c-0.082-0.002-0.148-0.068-0.15-0.15v-1.2c0-0.16 0.070-0.25 0.15-0.25zM6.55 15.2h11.6c0.080 0 0.175 0.070 0.175 0.15v1.3h0.075c0 0.080-0.070 0.15-0.15 0.15h-11.7c-0.082-0.002-0.148-0.068-0.15-0.15v-1.2c0-0.16 0.070-0.25 0.15-0.25zM19.45 15.275h1.2c0.080 0 0.15 0.095 0.15 0.175v1.2c0 0.080-0.070 0.15-0.15 0.15h-1.2c-0.080 0-0.175-0.070-0.175-0.15v-1.2c0-0.080 0.095-0.175 0.175-0.175zM21.85 15.275h1.2c0.080 0 0.15 0.095 0.15 0.175v1.2c0 0.080-0.070 0.15-0.15 0.15h-1.2c-0.080 0-0.175-0.070-0.175-0.15v-1.2c0-0.080 0.095-0.175 0.175-0.175z"></path>
</symbol>
</defs>
</svg>